# xmcd CD database file
#
# Track frame offsets:
#	150
#	23829
#	45934
#	71466
#	87163
#	112361
#	138868
#	157771
#	180517
#	200337
#	214724
#	231758
#	252470
#	277138
#	293030
#	312572
#
# Disc length: 4633 seconds
#
# Revision: 0
# Processed by: cddbd v1.5.2PL0 Copyright (c) Steve Scherf et al.
# Submitted via: CDex 1.79
#
DISCID=e3121710
DTITLE=Cross Walk - Live! im Hotel zur Post Norden
DYEAR=2000
DGENRE=Blues
TTITLE0=Dr Feelgood
TTITLE1=Route 66
TTITLE2=Knocking on Heaven's Door
TTITLE3=Stormy Monday
TTITLE4=While my guitar gently weeps
TTITLE5=Blues traffic
TTITLE6=Long gone midnight
TTITLE7=Blues for Jenny
TTITLE8=Nobody knows you
TTITLE9=Land over yonder
TTITLE10=Sweet home Chicago
TTITLE11=Wonderful tonight
TTITLE12=Don't change your mind
TTITLE13=Annabelle
TTITLE14=Running on faith
TTITLE15=Los Angeles
EXTD=YEAR: 2000
EXTT0=
EXTT1=
EXTT2=
EXTT3=
EXTT4=
EXTT5=
EXTT6=
EXTT7=
EXTT8=
EXTT9=
EXTT10=
EXTT11=
EXTT12=
EXTT13=
EXTT14=
EXTT15=
PLAYORDER=
